<?xml version="1.0" ?><svg viewBox="0 0 64 64" xmlns="http://www.w3.org/2000/svg"><defs><style>.cls-1,.cls-2{fill:none;stroke:#fff;stroke-linejoin:round;stroke-width:2px;}.cls-1{stroke-linecap:round;}</style></defs><g id="food-order"><circle cx="55.8333" cy="16.0346" r="1.0691"/><circle cx="13.8333" cy="58.0346" r="1.0691"/><line class="cls-1" x1="9.9191" x2="12.7475" y1="47.1203" y2="49.9488"/><line class="cls-1" x1="12.7475" x2="9.9191" y1="47.1203" y2="49.9488"/><path class="cls-1" d="M41.4569,55.0136a4.8078,4.8078,0,0,0,1.9895,1.5232L47,58v5"/><polyline class="cls-1" points="60 63.143 60 39 48.141 22.488"/><path class="cls-1" d="M48,35.4249V5.0738A4.0738,4.0738,0,0,0,43.9261,1H22.0738A4.0738,4.0738,0,0,0,18,5.0739v8.7375"/><path class="cls-1" d="M18,39.4234V50.9261A4.0738,4.0738,0,0,0,22.0738,55H43.9261a4.0746,4.0746,0,0,0,4.0512-3.6411"/><path class="cls-1" d="M27.4038,1H38.5961A.4039.4039,0,0,1,39,1.4039v0A2.5961,2.5961,0,0,1,36.4039,4H29.5961A2.5961,2.5961,0,0,1,27,1.4039v0A.4039.4039,0,0,1,27.4038,1Z"/><line class="cls-1" x1="28" x2="38" y1="52" y2="52"/><path class="cls-2" d="M4.0327,31.1031v3a5,5,0,0,0,5,5H27.0374a5,5,0,0,0,5-5v-3"/><path class="cls-1" d="M31.5374,26.1031a2.5,2.5,0,0,1,2.5,2.5h0a2.5,2.5,0,0,1-2.5,2.5h-27a2.5,2.5,0,0,1-2.5-2.5h0a2.5,2.5,0,0,1,2.5-2.5"/><path class="cls-1" d="M23.0374,14.1031H13.0327a9,9,0,0,0-9,9v3H22.0374v1.5a1.5,1.5,0,0,0,3,0v-1.5h7v-3A9,9,0,0,0,23.0374,14.1031Z"/><line class="cls-1" x1="8.0374" x2="9.0374" y1="20.1031" y2="19.1031"/><line class="cls-1" x1="21.0374" x2="22.0374" y1="20.1031" y2="19.1031"/><line class="cls-1" x1="17.0374" x2="18.0374" y1="18.1031" y2="17.1031"/><line class="cls-1" x1="12.1571" x2="13.5484" y1="18.8094" y2="19.7189"/><line class="cls-1" x1="25.0374" x2="26.6681" y1="19.1031" y2="19.4252"/><path class="cls-1" d="M51.0943,39.0553,41,28l-1.0729.98a4.822,4.822,0,0,0-.3421,6.81l5.1763,5.6691S43.1816,47.4,50,53"/><rect class="cls-1" height="4" rx="1.5614" width="16" x="28" y="7"/><rect class="cls-1" height="4" rx="1.5614" width="10" x="34" y="14"/><line class="cls-2" x1="32" x2="4" y1="34" y2="34"/><line class="cls-2" x1="4" x2="32" y1="23" y2="23"/></g></svg>